<svg transform="scale(1)" version="1.1" id="Layer_1" xmlns="http://www.w3.org/2000/svg" xmlns:xlink="http://www.w3.org/1999/xlink" x="0px" y="0px" viewBox="0 0 500 500" xml:space="preserve" class="show_show__wrapper__graphic__5Waiy "><title>React</title><style type="text/css">
	.st0{fill:#F2EBEB;}
	.st1{fill:#000001;}
	.st2{fill:#FFFFFF;}
	.st3{fill:#87CCDB;}
	.st4{fill:#EA8383;}
	.st5{fill:#469F78;}
	.st6{fill:#F3CB5C;}
</style><g id="airport"><path class="st0" d="M89,364.4l-27.8-69c0,0,68.5-83.4,190.1-75.4c111.9,7.4,160,75.9,160,75.9L387,364.4L89,364.4z"></path><path class="st1" d="M69.3,291.9c5.6-4.8,11.6-9.2,18-13c6.3-3.9,12.9-7.4,19.6-10.6c6.7-3.2,13.6-6,20.5-8.6
		c7-2.6,14.1-4.8,21.2-6.8s14.4-3.6,21.7-4.9s14.7-2.5,22.1-3.2c14.8-1.6,29.6-2.3,44.5-2c29.7,0.6,59.3,4.8,88.1,12.3
		c14.3,3.9,28.4,8.9,42,14.8l5.1,2.3c1.7,0.7,3.3,1.6,5,2.5l5,2.5l4.9,2.7c6.5,3.6,12.7,7.6,18.6,12.1c-6-4.3-12.3-8.2-18.9-11.6
		l-4.9-2.6l-5-2.4c-1.7-0.8-3.3-1.6-5-2.3l-5.1-2.2c-13.6-5.7-27.7-10.5-42-14.2c-7.2-1.6-14.4-3.6-21.6-4.8l-5.5-1.1
		c-1.8-0.3-3.6-0.7-5.5-1l-11-1.6c-1.8-0.2-3.6-0.5-5.5-0.8l-5.5-0.5l-11-1c-1.8-0.2-3.7-0.3-5.5-0.3l-5.5-0.2l-11.1-0.5
		c-29.5-0.7-59.2,2.2-87.8,9.6c-7.1,1.9-14.2,4-21.2,6.4s-13.8,5.2-20.6,8.3c-6.7,3-13.3,6.4-19.7,10.2c-3.2,1.9-6.3,3.9-9.4,5.9
		C75.2,287.3,72.2,289.6,69.3,291.9z"></path><path class="st1" d="M61.2,295.4c1.4-5.4,3.1-10.8,4.8-16.1c0.9-2.7,1.7-5.3,2.7-8s1.8-5.3,2.8-7.9l0.3-0.8l0.8,0.1
		c4.7,0.7,9.3,1.4,13.9,2.2c2.3,0.4,4.6,0.9,6.9,1.3s4.6,0.9,6.9,1.5c-2.3-0.1-4.7-0.3-7-0.6s-4.7-0.5-7-0.7
		c-4.7-0.5-9.3-1.1-14-1.8l1.1-0.6c-0.9,2.6-1.9,5.3-2.8,7.9s-1.9,5.2-2.9,7.9C65.5,285.1,63.4,290.3,61.2,295.4z"></path><path class="st1" d="M411.3,296c-1-2.6-2-5.2-2.9-7.8s-1.8-5.2-2.7-7.9s-1.7-5.3-2.6-7.9s-1.7-5.3-2.4-8l1.1,0.7
		c-4.6,0.6-9.3,1.3-14,1.8c-2.3,0.3-4.7,0.5-7,0.7s-4.7,0.4-7,0.5c2.3-0.5,4.6-1,6.9-1.5s4.6-0.9,6.9-1.3c4.6-0.8,9.3-1.6,13.9-2.2
		l0.8-0.1l0.3,0.8c0.8,2.6,1.6,5.3,2.4,8s1.5,5.3,2.3,8s1.5,5.4,2.1,8S410.7,293.3,411.3,296z"></path><path class="st2" d="M114.2,360.7c-1.6-7.1-3-14.2-4.3-21.3c-1.3-7.1-2.5-14.2-3.7-21.4s-2.3-14.3-3.3-21.4s-2-14.3-2.7-21.5
		c1.6,7.1,3,14.2,4.3,21.3c1.3,7.1,2.5,14.2,3.7,21.4s2.3,14.3,3.3,21.4S113.4,353.5,114.2,360.7z"></path><path class="st2" d="M144.8,259c1.6,8.4,3.2,16.9,4.6,25.3c1.4,8.5,2.7,16.9,4,25.4s2.5,17,3.6,25.5s2.2,17,3,25.5
		c-1.7-8.4-3.2-16.9-4.6-25.3c-1.4-8.5-2.7-16.9-4-25.4s-2.5-17-3.6-25.5S145.7,267.6,144.8,259z"></path><path class="st2" d="M193.4,360.7c-0.6-9.2-1.1-18.3-1.4-27.4c-0.4-9.1-0.7-18.3-0.9-27.4s-0.4-18.3-0.5-27.4s-0.1-18.3,0.1-27.5
		c0.6,9.1,1.1,18.3,1.5,27.4c0.4,9.1,0.7,18.3,0.9,27.4s0.4,18.3,0.5,27.4S193.6,351.6,193.4,360.7z"></path><path class="st2" d="M236.2,247.4c0.4,9.1,0.7,18.3,0.9,27.4c0.2,9.1,0.3,18.3,0.3,27.4s0,18.3-0.1,27.4s-0.3,18.3-0.7,27.4
		c-0.4-9.1-0.7-18.3-0.9-27.4c-0.2-9.1-0.3-18.3-0.3-27.4s0-18.3,0.1-27.4S235.9,256.5,236.2,247.4z"></path><path class="st2" d="M280.7,360.7c-0.2-9.2-0.2-18.3-0.1-27.5c0.1-9.1,0.3-18.3,0.5-27.4s0.5-18.3,0.9-27.4s0.9-18.3,1.5-27.4
		c0.1,9.2,0.2,18.3,0.1,27.5c-0.1,9.1-0.3,18.3-0.5,27.4s-0.5,18.3-0.9,27.4S281.3,351.6,280.7,360.7z"></path><path class="st2" d="M332.5,261c-0.4,8-1,16.1-1.6,24.1c-0.6,8-1.4,16-2.2,24s-1.7,16-2.6,24s-2,16-3.2,23.9c0.4-8,1-16,1.6-24
		c0.6-8,1.4-16,2.2-24s1.7-16,2.6-24S331.3,269,332.5,261z"></path><path class="st2" d="M373.7,279.6c-0.5,3.3-0.9,6.7-1.3,10s-0.9,6.7-1.4,10c-0.9,6.6-2,13.3-3,19.9s-2.2,13.2-3.4,19.9
		s-2.5,13.2-4,19.8c0.7-6.7,1.5-13.3,2.4-20c0.9-6.7,1.9-13.3,3-19.9s2.2-13.2,3.5-19.8S372,286.1,373.7,279.6z"></path><path class="st3" d="M184,364.4c0,0-5.7-36.5-3.4-38.1s113-2.5,113,0s-2.5,38.1-2.5,38.1H184z"></path><path class="st2" d="M174.5,321.7c0,0,120.7-2.4,121.7,0s0,8.2,0,8.2s-118.1,0.2-119.5,0S174.5,321.7,174.5,321.7z"></path><path class="st2" d="M211.5,364.4l-0.7-8.1c-0.2-2.7-0.4-5.4-0.8-8c-0.1-0.6-0.2-1.2-0.4-1.8l0,0l0,0c0,0,0.1,0.1,0.1,0.1h-0.1
		h-0.2c-0.3,0-0.6,0-0.9-0.1c-1.3,0-2.6,0-4,0c-2.7,0.1-5.4,0.2-8,0.4l0.9-1c0.1,3.1,0.2,6.1,0.3,9.2s0.1,6.1,0.2,9.2l-0.7-0.7
		c2.3,0.1,4.6,0.2,7,0.3L211.5,364.4z M211.5,364.4l-7,0.4c-2.4,0.1-4.9,0.2-7.3,0.3h-0.7v-0.7c-0.2-3.1-0.4-6.1-0.6-9.2
		s-0.3-6.1-0.4-9.2v-1l1,0c2.7-0.1,5.4-0.2,8.1-0.3c1.4,0,2.7,0,4.1,0.1c0.4,0,0.7,0,1.1,0.1l0.3,0.1c0.1,0,0.3,0.1,0.4,0.1l0.2,0.1
		c0.1,0.1,0.2,0.2,0.3,0.3c0.1,0.1,0.1,0.2,0.1,0.2l0.1,0.2c0.2,0.7,0.3,1.4,0.4,2.2c0.2,2.7,0.3,5.4,0.2,8.1
		S211.7,361.7,211.5,364.4z"></path><path class="st2" d="M243.3,364.4l-0.3-13c0-1.1-0.1-2.2-0.1-3.2c0-0.5-0.1-1.1-0.1-1.6c0-0.2-0.1-0.4-0.1-0.5
		c0,0.1,0.1,0.1,0.1,0.1l0,0c-0.1,0-0.2-0.1-0.2-0.1c-1-0.2-2-0.2-3.1-0.2c-1.1,0-2.1,0-3.2,0.1c-2.1,0.1-4.3,0.2-6.4,0.5l-0.4,0
		h-0.1l0,0h0.1c0.1-0.1,0.2-0.2,0.3-0.3l0,0v0.1c0,0.1,0,0.2-0.1,0.3c-0.1,0.5-0.1,1-0.1,1.5c0,1.1-0.1,2.1-0.1,3.2
		c0,4.3,0.1,8.7,0.2,13l-0.7-0.7c2.3,0.1,4.6,0.2,7,0.3L243.3,364.4z M243.3,364.4l-7,0.4c-2.4,0.1-4.9,0.2-7.3,0.3h-0.7l-0.1-0.7
		c-0.4-4.3-0.6-8.7-0.7-13c0-1.1,0-2.2,0-3.3c0-0.6,0-1.1,0.1-1.7c0-0.2,0-0.3,0.1-0.5l0.1-0.3c0-0.1,0.1-0.3,0.1-0.4
		c0.1-0.2,0.3-0.3,0.4-0.5c0.1,0,0.1-0.1,0.2-0.1h0.1c0.1,0,0.2-0.1,0.3-0.1l0.5-0.1c2.3-0.3,4.4-0.3,6.6-0.4c1.1,0,2.2,0,3.3,0
		c1.1,0,2.3,0.1,3.4,0.4c0.2,0,0.4,0.1,0.5,0.2c0.1,0.1,0.2,0.1,0.4,0.2c0.2,0.1,0.3,0.3,0.4,0.5c0.1,0.1,0.1,0.2,0.1,0.4
		c0,0.1,0,0.2,0,0.3s0,0.3,0.1,0.5c0,0.6,0,1.1,0.1,1.7c0,1.1,0,2.2-0.1,3.3C244.2,355.7,243.8,360.1,243.3,364.4z"></path><path class="st2" d="M262.7,364.4c-0.4-4.2-0.7-8.4-0.7-12.6c0-1.1,0-2.1,0-3.2c0-0.5,0.1-1.1,0.1-1.6c0-0.3,0.1-0.5,0.1-0.9
		c0-0.1,0.1-0.3,0.1-0.5c0.1-0.3,0.2-0.5,0.4-0.7c0.1,0,0.1-0.1,0.2-0.1l0.3-0.1h0.2h0.2h0.4h0.8l1.6-0.1c1.1,0,2.1,0,3.2,0
		s2.1,0.1,3.2,0.1c1.1,0.1,2.2,0.2,3.3,0.5c0.4,0.1,0.8,0.3,1.1,0.5c0.2,0.2,0.4,0.5,0.5,0.8c0,0.2,0.1,0.3,0.1,0.5
		c0.1,0.6,0.1,1.1,0.1,1.7c0,1.1,0,2.1,0,3.2c-0.1,4.2-0.3,8.4-0.7,12.6l-0.1,0.7h-0.7C271.9,365,267.1,364.6,262.7,364.4z
		 M262.7,364.4c4.9-0.3,9.5-0.6,13.9-0.7l-0.7,0.7c0.1-4.2,0.2-8.4,0.2-12.5c0-1,0-2.1-0.1-3.1c0-0.5-0.1-1-0.1-1.4
		c0-0.1,0-0.2-0.1-0.2c0,0,0-0.1,0,0l0.1,0.1c0.1,0-0.2-0.1-0.3-0.1c-1-0.2-1.9-0.4-2.9-0.4c-1-0.1-2-0.1-3.1-0.2s-2.1-0.1-3.1-0.1
		h-2.3h-0.4h-0.2l0,0c0.1,0,0.1,0,0.2-0.1l0.1-0.1c0.1-0.2,0.1-0.1,0,0s-0.1,0.2-0.1,0.3c-0.1,0.2-0.1,0.5-0.1,0.7
		c-0.1,0.5-0.1,1-0.2,1.5c-0.1,1-0.2,2-0.2,3.1C263.1,356,263,360.2,262.7,364.4z"></path><path class="st4" d="M126,255.1l16.7,107.8h10.1c0,0,18.1-120,18.1-122.4s-3.8-1.7-3.8-1.7l-18.7,93.1l-17.6-79.5
		C129.1,252.9,127.4,253.9,126,255.1z"></path><path class="st4" d="M75.8,263.8l24.4,100.6c0,0-16,2.9-16,0S72.3,263.8,72.3,263.8H75.8z"></path><path class="st4" d="M347.9,255.4l-16.7,107.8H321c0,0-18.1-120-18.1-122.4s3.8-1.7,3.8-1.7l18.7,93.1l17.6-79.5
		C344.8,253.3,346.5,254.2,347.9,255.4z"></path><path class="st4" d="M398.1,264.2l-24.4,100.6c0,0,12.9,1,13.2-0.4c0.8-2.8,14.7-100.2,14.7-100.2H398.1z"></path></g><g id="cloud"><path class="st0" d="M343.3,191.8c0,0,16.8-18.1,23.7-17.5s3,12.1,6.8,11.1s8.6-17.3,20.8-16s1.2,18.7,2.4,18.7s13.7-4.6,10.7,3.7
		L343.3,191.8z"></path><path class="st0" d="M63.7,94.2c0,0,11.9-13.4,16.2-10.8s2,7.2,2,7.2s16.3-21.7,31.7-22.2s8.2,19.6,8.2,19.6s24.5-32,50.8-31.5
		s11.9,34.1,11.9,34.1L63.7,94.2z"></path><path class="st0" d="M120.5,169.3c0,0,14.5-15.6,20.5-15.1s2.6,10.4,5.8,9.6s7.4-14.9,18-13.8s1.1,16.1,2.1,16.1s11.8-4,9.2,3.2
		L120.5,169.3z"></path></g><g id="street"><path class="st0" d="M63.4,415.9h347c0,0-0.6,24.2,0,26.5s-347,0-347,0S57.6,421.9,63.4,415.9z"></path><path class="st2" d="M82.8,432.3c0,0,29.2,0.1,30.8,0s1.3-4.6,1.3-4.6s-30.8,0.3-32.1,0S82.8,432.3,82.8,432.3z"></path><path class="st2" d="M151.6,432.3c0,0,29.1,0.1,30.8,0s1.3-4.6,1.3-4.6s-30.7,0.3-32.1,0S151.6,432.3,151.6,432.3z"></path><path class="st2" d="M219.5,432.3c0,0,29.1,0.1,30.7,0s1.3-4.6,1.3-4.6s-30.8,0.3-32.1,0S219.5,432.3,219.5,432.3z"></path><path class="st2" d="M288.2,432.3c0,0,29.1,0.1,30.8,0s1.3-4.6,1.3-4.6s-30.8,0.3-32.1,0S288.2,432.3,288.2,432.3z"></path><path class="st2" d="M356.7,432.3c0,0,29.1,0.1,30.8,0s1.3-4.6,1.3-4.6s-30.7,0.3-32.1,0S356.7,432.3,356.7,432.3z"></path></g><g id="airplane-1"><path class="st5" d="M430.4,372.9c0,0-36.8,18.4-52.9,20s-84.9-2.6-105.6-5.5s-26.5-10.3-14.9-14.5c11.6-4.2,14.5-4.5,14.5-4.5
		s4.5-8.4,16.8-11.3s109.4,2.8,109.4,2.8s26-21.9,32.7-21s-4,25.1-4,25.1S436.7,367,430.4,372.9z"></path><path class="st6" d="M300,380c0,0,68.1,19.2,77.8,22.5s42,2.1,39.6-2.1s-56.4-23.1-58.7-24S299.1,377,300,380z"></path><path class="st6" d="M403.1,374c0,0,18.5,8.1,23.5,8.3s13.5,0.7,12.4-1.3s-14.5-9-16.3-9S403.1,371.6,403.1,374z"></path><path class="st1" d="M288.4,393.2c0,0-6.7,0.8-4.9,6.7s10.5,3.3,11-0.8S290.6,392.6,288.4,393.2z M287.1,398.8
		c-0.6-2,1.6-2.2,1.6-2.2c1-0.1,1.9,0.6,2,1.6c0,0.1,0,0.3,0,0.4C290.5,399.9,287.6,400.8,287.1,398.8L287.1,398.8z"></path><path class="st5" d="M343.6,392.4c0,0,0.7,2.8-4.5,3.7s-22.7,2.3-23.8,1.5s-2.8-13,0-13.3S343.6,392.4,343.6,392.4z"></path><path class="st1" d="M315.9,385.6c0,0,3.3,10.5,0,12.1S310.1,380.8,315.9,385.6z"></path><path class="st1" d="M271.5,368.4c0,0,11.8,0.6,13.3,0s2.3-2.8,1.6-3.3s-10.7-0.5-12.4,0S271.5,368.4,271.5,368.4z"></path><path class="st1" d="M298.1,367.2c0,0,2.4-0.8,2.8,0s-0.6,3.9-1.4,4.1s-1.9-0.2-1.9-0.5S298.1,367.2,298.1,367.2z"></path><path class="st1" d="M307,367.2c0,0,2.4-0.8,2.8,0s-0.6,3.9-1.4,4.1s-1.9-0.2-1.9-0.5S307,367.2,307,367.2z"></path><path class="st1" d="M316.2,367.2c0,0,2.4-0.8,2.8,0s-0.6,3.9-1.4,4.1s-1.9-0.2-1.9-0.5S316.2,367.2,316.2,367.2z"></path><path class="st1" d="M325.1,367.2c0,0,2.4-0.8,2.8,0s-0.6,3.9-1.4,4.1s-1.9-0.2-1.9-0.5S325.1,367.2,325.1,367.2z"></path><path class="st1" d="M333.3,367.2c0,0,2.4-0.8,2.8,0s-0.6,3.9-1.4,4.1s-1.9-0.2-1.9-0.5S333.3,367.2,333.3,367.2z"></path><path class="st1" d="M342.1,367.2c0,0,2.4-0.8,2.8,0s-0.6,3.9-1.4,4.1s-1.9-0.2-1.9-0.5S342.1,367.2,342.1,367.2z"></path><path class="st1" d="M351.4,367.2c0,0,2.4-0.8,2.8,0s-0.6,3.9-1.4,4.1s-1.9-0.2-1.9-0.5S351.4,367.2,351.4,367.2z"></path><path class="st1" d="M360.3,367.2c0,0,2.4-0.8,2.8,0s-0.6,3.9-1.4,4.1s-1.9-0.2-1.9-0.5S360.3,367.2,360.3,367.2z"></path><path class="st1" d="M369.3,367.2c0,0,2.4-0.8,2.8,0s-0.6,3.9-1.4,4.1s-1.9-0.2-1.9-0.5S369.3,367.2,369.3,367.2z"></path><path class="st1" d="M378.2,367.2c0,0,2.4-0.8,2.8,0s-0.6,3.9-1.4,4.1s-1.9-0.2-1.9-0.5S378.2,367.2,378.2,367.2z"></path><path class="st1" d="M426.4,364c-6.4-0.8-12.8-1.5-19.2-2.1s-12.8-1.3-19.2-1.8s-12.8-1-19.2-1.4l-19.2-1.2
		c1.6-0.1,3.2-0.2,4.8-0.2s3.2-0.1,4.8-0.1c3.2,0,6.4-0.1,9.7,0c6.4,0.1,12.9,0.5,19.3,1s12.8,1.3,19.2,2.2S420.1,362.4,426.4,364z"></path></g><g id="airplane-2"><path class="st3" d="M360.5,83.6c0,0,19.7-10.5,22.5-10.7s12.3-0.4,12.1,1.9s-16,10.2-16,10.2s-8.2,14.2-10.7,13.3
		s0.8-11.4,0.8-11.4s-11.2,2.5-12.7,2.5s-6.4-6.9-5.4-7.3S360.5,83.6,360.5,83.6z"></path><path class="st3" d="M358.8,98.3c-14.5,5.7-29.4,10.4-44.6,14.2c-3.8,0.9-7.6,1.8-11.5,2.4c-3.9,0.7-7.8,1-11.8,1.1
		c-2.1,0-4.1-0.3-6-1c-1.1-0.4-2-1-2.8-1.9c-0.7-1-1.1-2.1-1-3.3c-0.1-2.2,0.9-4.4,2.6-5.9c1.7-1.4,3.8-2.2,6-2.2
		c4.3-0.1,8.4,1.7,11.1,5c1.3,1.6,2.2,3.6,2.6,5.7c0.4,2,0.3,4.1-0.2,6.2c-1,3.9-2.8,7.5-5.3,10.7c-2.3,3.2-5.1,6.1-8.2,8.6
		c-3.1,2.5-6.6,4.4-10.4,5.7c-3.8,1.3-7.7,1.9-11.7,1.8c-3.9-0.1-7.8-0.8-11.6-2c-3.7-1.2-7.3-2.8-10.6-4.9
		c6.8,3.8,14.4,5.8,22.2,5.9c3.8,0,7.7-0.7,11.3-2c3.6-1.4,6.9-3.3,9.8-5.7c2.9-2.5,5.5-5.3,7.8-8.4c2.3-3,4-6.4,4.9-10.1
		c1-3.5,0.2-7.3-2.1-10.2c-2.4-2.8-5.9-4.3-9.6-4.2c-1.7,0-3.4,0.6-4.8,1.7c-1.3,1.1-2,2.8-1.9,4.5c-0.1,0.8,0.1,1.5,0.6,2.2
		c0.5,0.6,1.2,1.1,2,1.3c1.7,0.6,3.6,0.9,5.4,0.9c3.8,0,7.7-0.3,11.5-0.9c3.8-0.6,7.6-1.3,11.4-2.2c7.6-1.7,15.1-3.7,22.6-5.9
		S351.4,100.7,358.8,98.3z"></path><path class="st3" d="M342.6,93.4c-2.8,1.3-5.7,2.4-8.6,3.3c-3,0.9-6,1.5-9,2c-1.5,0.2-3.1,0.4-4.6,0.4c-1.6,0.1-3.1,0-4.7-0.1
		c-1.6-0.1-3.1-0.5-4.6-1c-1.5-0.5-2.8-1.5-3.8-2.7c1.2,0.9,2.6,1.5,4.1,1.7c1.5,0.3,2.9,0.4,4.4,0.4c3,0,6-0.3,9-0.7
		c3-0.4,6-1,9-1.5L342.6,93.4z"></path><path class="st3" d="M268.8,153.9c1.8,0,3.7,0,5.5-0.2c1.8-0.2,3.5-0.5,5.2-1.1c1.7-0.5,3.3-1.2,4.9-2c1.6-0.9,3.2-1.8,4.7-2.8
		c-1,1.6-2.3,3-3.9,4.2c-1.5,1.2-3.3,2-5.1,2.6c-1.8,0.6-3.8,0.8-5.7,0.7C272.4,155.2,270.5,154.7,268.8,153.9z"></path></g></svg>